<?xml version="1.0" standalone="no"?>
<!DOCTYPE svg PUBLIC "-//W3C//DTD SVG 20010904//EN"
 "http://www.w3.org/TR/2001/REC-SVG-20010904/DTD/svg10.dtd">
<svg version="1.0" xmlns="http://www.w3.org/2000/svg"
 width="958.000000pt" height="1280.000000pt" viewBox="0 0 958.000000 1280.000000"
 preserveAspectRatio="xMidYMid meet">
<g transform="translate(0.000000,1280.000000) scale(0.100000,-0.100000)"
fill="#000000" stroke="none">
<path d="M4280 12789 c-52 -4 -153 -13 -225 -19 -873 -75 -1649 -365 -2338
-873 -283 -208 -620 -526 -808 -762 -397 -497 -647 -1045 -758 -1665 -115
-637 -83 -1411 85 -2100 124 -508 332 -983 605 -1385 298 -438 726 -829 1219
-1112 176 -102 479 -249 489 -238 12 13 1875 2506 1885 2523 5 9 -40 36 -166
96 -96 46 -210 105 -254 131 -429 253 -645 630 -646 1125 0 156 11 240 47 365
55 188 160 365 313 526 111 117 196 183 312 243 175 90 333 122 559 113 342
-15 577 -112 791 -327 312 -312 435 -734 375 -1291 -30 -287 -94 -505 -219
-754 -92 -182 -204 -363 -338 -547 -149 -203 -1204 -1589 -1807 -2373 -2033
-2643 -2913 -3730 -3333 -4124 l-68 -63 0 -139 0 -139 4399 0 c4182 0 4400 1
4405 18 8 26 139 521 401 1512 130 492 266 1001 302 1130 60 215 66 245 70
352 l4 118 -1695 0 c-1145 0 -1697 3 -1701 10 -4 6 60 79 142 163 309 317 656
708 939 1057 764 941 1327 1882 1639 2739 120 328 210 696 257 1041 19 140 22
213 22 480 1 400 -22 660 -90 1005 -185 943 -655 1710 -1389 2267 -667 506
-1564 806 -2625 877 -85 6 -221 15 -301 21 -167 11 -360 11 -499 -1z"/>
</g>
</svg>
