<?xml version="1.0" standalone="no"?>
<!DOCTYPE svg PUBLIC "-//W3C//DTD SVG 20010904//EN"
 "http://www.w3.org/TR/2001/REC-SVG-20010904/DTD/svg10.dtd">
<svg version="1.0" xmlns="http://www.w3.org/2000/svg"
 width="912.000000pt" height="1280.000000pt" viewBox="0 0 912.000000 1280.000000"
 preserveAspectRatio="xMidYMid meet">
<g transform="translate(0.000000,1280.000000) scale(0.100000,-0.100000)"
fill="#000000" stroke="none">
<path d="M4315 12789 c-49 -5 -181 -15 -292 -24 -1045 -82 -1941 -409 -2713
-991 -438 -330 -792 -687 -1188 -1196 l-122 -158 0 -79 c0 -58 4 -80 14 -84 7
-3 538 -357 1180 -786 641 -430 1171 -784 1178 -786 8 -3 45 42 99 122 171
253 289 391 464 541 305 262 645 418 1005 462 122 15 334 12 433 -5 381 -66
726 -323 852 -634 106 -261 92 -606 -36 -852 -132 -253 -391 -418 -779 -497
l-125 -25 -727 -4 -728 -4 0 -1254 0 -1253 758 -5 c427 -3 811 -10 882 -16
667 -60 1038 -236 1208 -576 123 -246 147 -657 54 -925 -86 -246 -266 -442
-542 -588 -251 -133 -508 -197 -845 -209 -618 -22 -1158 223 -1716 777 -114
113 -226 237 -314 348 -75 94 -140 172 -144 172 -4 0 -462 -442 -1018 -982
-555 -541 -1042 -1014 -1082 -1051 l-71 -69 0 -70 0 -70 144 -157 c478 -521
982 -906 1575 -1205 684 -345 1458 -557 2261 -621 107 -8 251 -20 320 -25 157
-13 357 -13 508 0 64 5 185 14 267 20 1195 89 2201 527 2966 1290 618 617 971
1365 1049 2225 6 66 15 164 20 218 19 186 14 288 -31 660 -62 518 -247 999
-543 1412 -221 309 -544 625 -878 860 -54 37 -98 73 -98 78 0 5 28 39 63 76
173 184 383 456 531 690 350 553 492 1102 456 1762 -17 328 -48 534 -120 815
-142 550 -415 1033 -820 1448 -674 693 -1565 1110 -2565 1201 -93 8 -220 20
-281 25 -126 11 -377 11 -509 -1z"/>
</g>
</svg>
