<?xml version="1.0" standalone="no"?>
<!DOCTYPE svg PUBLIC "-//W3C//DTD SVG 20010904//EN"
 "http://www.w3.org/TR/2001/REC-SVG-20010904/DTD/svg10.dtd">
<svg version="1.0" xmlns="http://www.w3.org/2000/svg"
 width="972.000000pt" height="1280.000000pt" viewBox="0 0 972.000000 1280.000000"
 preserveAspectRatio="xMidYMid meet">
<g transform="translate(0.000000,1280.000000) scale(0.100000,-0.100000)"
fill="#000000" stroke="none">
<path d="M2621 9617 c-723 -1750 -1602 -3877 -1952 -4727 -351 -850 -645
-1558 -654 -1573 -11 -21 -15 -59 -15 -143 l0 -114 2453 -2 2452 -3 3 -1528 2
-1528 118 4 c64 3 171 14 237 26 66 11 287 46 490 76 513 78 1353 204 1830
275 220 33 412 63 427 66 l28 6 2 1301 3 1302 590 5 590 5 8 25 c4 14 111 594
237 1290 127 696 235 1275 240 1288 6 13 10 72 10 132 l0 110 -837 2 -838 3
-3 3443 -2 3442 -2053 0 -2052 0 -1314 -3183z m2489 -2267 c0 -774 -3 -1415
-6 -1424 -6 -14 -67 -16 -594 -16 -379 0 -591 4 -595 10 -6 9 1147 2811 1168
2837 5 7 13 10 18 7 5 -3 9 -605 9 -1414z"/>
</g>
</svg>
